<mxfile host="app.diagrams.net" agent="Mozilla/5.0 (Macintosh; Intel Mac OS X 10_15_7) AppleWebKit/537.36 (KHTML, like Gecko) Chrome/135.0.0.0 Safari/537.36" version="26.2.14">
  <diagram name="Page-1" id="9OhKOkV_mPs7GRqaQnFj">
    <mxGraphModel dx="694" dy="338" grid="1" gridSize="15" guides="1" tooltips="1" connect="1" arrows="1" fold="1" page="1" pageScale="1" pageWidth="850" pageHeight="1100" math="0" shadow="0">
      <root>
        <mxCell id="0" />
        <mxCell id="1" parent="0" />
        <mxCell id="NuPOkmNerUYuCZftRO_D-1" value="用户" style="rounded=1;whiteSpace=wrap;html=1;" parent="1" vertex="1">
          <mxGeometry x="155" y="225" width="90" height="30" as="geometry" />
        </mxCell>
        <mxCell id="NuPOkmNerUYuCZftRO_D-24" value="资助申请" style="rounded=1;whiteSpace=wrap;html=1;" parent="1" vertex="1">
          <mxGeometry x="375" y="326.25" width="90" height="37.5" as="geometry" />
        </mxCell>
        <mxCell id="NuPOkmNerUYuCZftRO_D-43" value="角色" style="rounded=1;whiteSpace=wrap;html=1;" parent="1" vertex="1">
          <mxGeometry x="270" y="172.5" width="90" height="30" as="geometry" />
        </mxCell>
        <mxCell id="yEoN-I2goSY5zeMMuiuP-4" value="继承" style="rhombus;whiteSpace=wrap;html=1;" parent="1" vertex="1">
          <mxGeometry x="165" y="277.5" width="70" height="37.5" as="geometry" />
        </mxCell>
        <mxCell id="yEoN-I2goSY5zeMMuiuP-5" value="资助发放" style="rounded=1;whiteSpace=wrap;html=1;" parent="1" vertex="1">
          <mxGeometry x="375" y="221.25" width="90" height="30" as="geometry" />
        </mxCell>
        <mxCell id="vlqeVVWM1p6C3pt4HZ7T-1" value="学生&lt;span style=&quot;color: rgba(0, 0, 0, 0); font-family: monospace; font-size: 0px; text-align: start; text-wrap-mode: nowrap;&quot;&gt;%3CmxGraphModel%3E%3Croot%3E%3CmxCell%20id%3D%220%22%2F%3E%3CmxCell%20id%3D%221%22%20parent%3D%220%22%2F%3E%3CmxCell%20id%3D%222%22%20value%3D%22%E7%94%A8%E6%88%B7%22%20style%3D%22rounded%3D1%3BwhiteSpace%3Dwrap%3Bhtml%3D1%3B%22%20vertex%3D%221%22%20parent%3D%221%22%3E%3CmxGeometry%20x%3D%2290%22%20y%3D%22270%22%20width%3D%2290%22%20height%3D%2230%22%20as%3D%22geometry%22%2F%3E%3C%2FmxCell%3E%3C%2Froot%3E%3C%2FmxGraphModel%3E&lt;/span&gt;&lt;span style=&quot;color: rgba(0, 0, 0, 0); font-family: monospace; font-size: 0px; text-align: start; text-wrap-mode: nowrap;&quot;&gt;%3CmxGraphModel%3E%3Croot%3E%3CmxCell%20id%3D%220%22%2F%3E%3CmxCell%20id%3D%221%22%20parent%3D%220%22%2F%3E%3CmxCell%20id%3D%222%22%20value%3D%22%E7%94%A8%E6%88%B7%22%20style%3D%22rounded%3D1%3BwhiteSpace%3Dwrap%3Bhtml%3D1%3B%22%20vertex%3D%221%22%20parent%3D%221%22%3E%3CmxGeometry%20x%3D%2290%22%20y%3D%22270%22%20width%3D%2290%22%20height%3D%2230%22%20as%3D%22geometry%22%2F%3E%3C%2FmxCell%3E%3C%2Froot%3E%3C%2FmxGraphModel%3E&lt;/span&gt;" style="rounded=1;whiteSpace=wrap;html=1;" vertex="1" parent="1">
          <mxGeometry x="155" y="330" width="90" height="30" as="geometry" />
        </mxCell>
        <mxCell id="vlqeVVWM1p6C3pt4HZ7T-2" value="教师" style="rounded=1;whiteSpace=wrap;html=1;" vertex="1" parent="1">
          <mxGeometry x="260" y="281.25" width="90" height="30" as="geometry" />
        </mxCell>
        <mxCell id="vlqeVVWM1p6C3pt4HZ7T-3" value="菜单" style="rounded=1;whiteSpace=wrap;html=1;" vertex="1" parent="1">
          <mxGeometry x="155" y="120" width="90" height="30" as="geometry" />
        </mxCell>
        <mxCell id="vlqeVVWM1p6C3pt4HZ7T-4" value="" style="endArrow=none;html=1;rounded=0;exitX=0.5;exitY=0;exitDx=0;exitDy=0;entryX=0.5;entryY=1;entryDx=0;entryDy=0;" edge="1" parent="1" source="vlqeVVWM1p6C3pt4HZ7T-1" target="yEoN-I2goSY5zeMMuiuP-4">
          <mxGeometry width="50" height="50" relative="1" as="geometry">
            <mxPoint x="315" y="335" as="sourcePoint" />
            <mxPoint x="365" y="285" as="targetPoint" />
          </mxGeometry>
        </mxCell>
        <mxCell id="vlqeVVWM1p6C3pt4HZ7T-5" value="1" style="edgeLabel;html=1;align=center;verticalAlign=middle;resizable=0;points=[];" vertex="1" connectable="0" parent="vlqeVVWM1p6C3pt4HZ7T-4">
          <mxGeometry x="0.2082" y="1" relative="1" as="geometry">
            <mxPoint as="offset" />
          </mxGeometry>
        </mxCell>
        <mxCell id="vlqeVVWM1p6C3pt4HZ7T-6" value="" style="endArrow=none;html=1;rounded=0;exitX=0.5;exitY=0;exitDx=0;exitDy=0;entryX=0.5;entryY=1;entryDx=0;entryDy=0;" edge="1" parent="1">
          <mxGeometry width="50" height="50" relative="1" as="geometry">
            <mxPoint x="199.71" y="281" as="sourcePoint" />
            <mxPoint x="199.71" y="255" as="targetPoint" />
          </mxGeometry>
        </mxCell>
        <mxCell id="vlqeVVWM1p6C3pt4HZ7T-7" value="1" style="edgeLabel;html=1;align=center;verticalAlign=middle;resizable=0;points=[];" vertex="1" connectable="0" parent="vlqeVVWM1p6C3pt4HZ7T-6">
          <mxGeometry x="0.2082" y="1" relative="1" as="geometry">
            <mxPoint as="offset" />
          </mxGeometry>
        </mxCell>
        <mxCell id="vlqeVVWM1p6C3pt4HZ7T-10" value="分配" style="rhombus;whiteSpace=wrap;html=1;" vertex="1" parent="1">
          <mxGeometry x="165" y="168.75" width="70" height="37.5" as="geometry" />
        </mxCell>
        <mxCell id="vlqeVVWM1p6C3pt4HZ7T-11" value="" style="endArrow=none;html=1;rounded=0;exitX=0.5;exitY=0;exitDx=0;exitDy=0;entryX=0.5;entryY=1;entryDx=0;entryDy=0;" edge="1" parent="1" source="NuPOkmNerUYuCZftRO_D-1" target="vlqeVVWM1p6C3pt4HZ7T-10">
          <mxGeometry width="50" height="50" relative="1" as="geometry">
            <mxPoint x="214.71" y="296" as="sourcePoint" />
            <mxPoint x="214.71" y="270" as="targetPoint" />
          </mxGeometry>
        </mxCell>
        <mxCell id="vlqeVVWM1p6C3pt4HZ7T-12" value="N" style="edgeLabel;html=1;align=center;verticalAlign=middle;resizable=0;points=[];" vertex="1" connectable="0" parent="vlqeVVWM1p6C3pt4HZ7T-11">
          <mxGeometry x="0.2082" y="1" relative="1" as="geometry">
            <mxPoint as="offset" />
          </mxGeometry>
        </mxCell>
        <mxCell id="vlqeVVWM1p6C3pt4HZ7T-13" value="" style="endArrow=none;html=1;rounded=0;entryX=0;entryY=0.5;entryDx=0;entryDy=0;" edge="1" parent="1" source="vlqeVVWM1p6C3pt4HZ7T-10" target="NuPOkmNerUYuCZftRO_D-43">
          <mxGeometry width="50" height="50" relative="1" as="geometry">
            <mxPoint x="229.71" y="311" as="sourcePoint" />
            <mxPoint x="229.71" y="285" as="targetPoint" />
          </mxGeometry>
        </mxCell>
        <mxCell id="vlqeVVWM1p6C3pt4HZ7T-14" value="M" style="edgeLabel;html=1;align=center;verticalAlign=middle;resizable=0;points=[];" vertex="1" connectable="0" parent="vlqeVVWM1p6C3pt4HZ7T-13">
          <mxGeometry x="0.2082" y="1" relative="1" as="geometry">
            <mxPoint as="offset" />
          </mxGeometry>
        </mxCell>
        <mxCell id="vlqeVVWM1p6C3pt4HZ7T-15" value="授权" style="rhombus;whiteSpace=wrap;html=1;" vertex="1" parent="1">
          <mxGeometry x="280" y="116.25" width="70" height="37.5" as="geometry" />
        </mxCell>
        <mxCell id="vlqeVVWM1p6C3pt4HZ7T-17" value="" style="endArrow=none;html=1;rounded=0;exitX=0.5;exitY=1;exitDx=0;exitDy=0;" edge="1" parent="1" source="vlqeVVWM1p6C3pt4HZ7T-15" target="NuPOkmNerUYuCZftRO_D-43">
          <mxGeometry width="50" height="50" relative="1" as="geometry">
            <mxPoint x="180" y="203" as="sourcePoint" />
            <mxPoint x="150" y="203" as="targetPoint" />
          </mxGeometry>
        </mxCell>
        <mxCell id="vlqeVVWM1p6C3pt4HZ7T-18" value="N" style="edgeLabel;html=1;align=center;verticalAlign=middle;resizable=0;points=[];" vertex="1" connectable="0" parent="vlqeVVWM1p6C3pt4HZ7T-17">
          <mxGeometry x="0.2082" y="1" relative="1" as="geometry">
            <mxPoint as="offset" />
          </mxGeometry>
        </mxCell>
        <mxCell id="vlqeVVWM1p6C3pt4HZ7T-21" value="提交" style="rhombus;whiteSpace=wrap;html=1;" vertex="1" parent="1">
          <mxGeometry x="280" y="326.25" width="70" height="37.5" as="geometry" />
        </mxCell>
        <mxCell id="vlqeVVWM1p6C3pt4HZ7T-22" value="" style="endArrow=none;html=1;rounded=0;entryX=0;entryY=0.5;entryDx=0;entryDy=0;" edge="1" parent="1" source="vlqeVVWM1p6C3pt4HZ7T-1" target="vlqeVVWM1p6C3pt4HZ7T-21">
          <mxGeometry width="50" height="50" relative="1" as="geometry">
            <mxPoint x="214.71" y="296" as="sourcePoint" />
            <mxPoint x="214.71" y="270" as="targetPoint" />
          </mxGeometry>
        </mxCell>
        <mxCell id="vlqeVVWM1p6C3pt4HZ7T-23" value="1" style="edgeLabel;html=1;align=center;verticalAlign=middle;resizable=0;points=[];" vertex="1" connectable="0" parent="vlqeVVWM1p6C3pt4HZ7T-22">
          <mxGeometry x="0.2082" y="1" relative="1" as="geometry">
            <mxPoint as="offset" />
          </mxGeometry>
        </mxCell>
        <mxCell id="vlqeVVWM1p6C3pt4HZ7T-24" value="" style="endArrow=none;html=1;rounded=0;entryX=0;entryY=0.5;entryDx=0;entryDy=0;" edge="1" parent="1" source="vlqeVVWM1p6C3pt4HZ7T-21" target="NuPOkmNerUYuCZftRO_D-24">
          <mxGeometry width="50" height="50" relative="1" as="geometry">
            <mxPoint x="260" y="360" as="sourcePoint" />
            <mxPoint x="295" y="360" as="targetPoint" />
          </mxGeometry>
        </mxCell>
        <mxCell id="vlqeVVWM1p6C3pt4HZ7T-25" value="N" style="edgeLabel;html=1;align=center;verticalAlign=middle;resizable=0;points=[];" vertex="1" connectable="0" parent="vlqeVVWM1p6C3pt4HZ7T-24">
          <mxGeometry x="0.2082" y="1" relative="1" as="geometry">
            <mxPoint as="offset" />
          </mxGeometry>
        </mxCell>
        <mxCell id="vlqeVVWM1p6C3pt4HZ7T-26" value="关联" style="rhombus;whiteSpace=wrap;html=1;" vertex="1" parent="1">
          <mxGeometry x="385" y="273.75" width="70" height="37.5" as="geometry" />
        </mxCell>
        <mxCell id="vlqeVVWM1p6C3pt4HZ7T-27" value="" style="endArrow=none;html=1;rounded=0;entryX=0.5;entryY=1;entryDx=0;entryDy=0;exitX=0.5;exitY=0;exitDx=0;exitDy=0;" edge="1" parent="1" source="NuPOkmNerUYuCZftRO_D-24" target="vlqeVVWM1p6C3pt4HZ7T-26">
          <mxGeometry width="50" height="50" relative="1" as="geometry">
            <mxPoint x="360" y="295.96" as="sourcePoint" />
            <mxPoint x="395" y="296" as="targetPoint" />
          </mxGeometry>
        </mxCell>
        <mxCell id="vlqeVVWM1p6C3pt4HZ7T-28" value="1" style="edgeLabel;html=1;align=center;verticalAlign=middle;resizable=0;points=[];" vertex="1" connectable="0" parent="vlqeVVWM1p6C3pt4HZ7T-27">
          <mxGeometry x="0.2082" y="1" relative="1" as="geometry">
            <mxPoint as="offset" />
          </mxGeometry>
        </mxCell>
        <mxCell id="vlqeVVWM1p6C3pt4HZ7T-29" value="" style="endArrow=none;html=1;rounded=0;entryX=0.5;entryY=1;entryDx=0;entryDy=0;exitX=0.5;exitY=0;exitDx=0;exitDy=0;" edge="1" parent="1" source="vlqeVVWM1p6C3pt4HZ7T-26" target="yEoN-I2goSY5zeMMuiuP-5">
          <mxGeometry width="50" height="50" relative="1" as="geometry">
            <mxPoint x="375" y="310.96" as="sourcePoint" />
            <mxPoint x="390" y="311" as="targetPoint" />
          </mxGeometry>
        </mxCell>
        <mxCell id="vlqeVVWM1p6C3pt4HZ7T-30" value="1" style="edgeLabel;html=1;align=center;verticalAlign=middle;resizable=0;points=[];" vertex="1" connectable="0" parent="vlqeVVWM1p6C3pt4HZ7T-29">
          <mxGeometry x="0.2082" y="1" relative="1" as="geometry">
            <mxPoint as="offset" />
          </mxGeometry>
        </mxCell>
        <mxCell id="vlqeVVWM1p6C3pt4HZ7T-33" value="" style="endArrow=none;html=1;rounded=0;exitX=1;exitY=0.5;exitDx=0;exitDy=0;" edge="1" parent="1" source="yEoN-I2goSY5zeMMuiuP-4" target="vlqeVVWM1p6C3pt4HZ7T-2">
          <mxGeometry width="50" height="50" relative="1" as="geometry">
            <mxPoint x="315" y="260" as="sourcePoint" />
            <mxPoint x="365" y="210" as="targetPoint" />
          </mxGeometry>
        </mxCell>
        <mxCell id="vlqeVVWM1p6C3pt4HZ7T-34" value="1" style="edgeLabel;html=1;align=center;verticalAlign=middle;resizable=0;points=[];" vertex="1" connectable="0" parent="vlqeVVWM1p6C3pt4HZ7T-33">
          <mxGeometry x="-0.2114" y="1" relative="1" as="geometry">
            <mxPoint as="offset" />
          </mxGeometry>
        </mxCell>
        <mxCell id="vlqeVVWM1p6C3pt4HZ7T-35" value="操作" style="rhombus;whiteSpace=wrap;html=1;" vertex="1" parent="1">
          <mxGeometry x="270" y="217.5" width="70" height="37.5" as="geometry" />
        </mxCell>
        <mxCell id="vlqeVVWM1p6C3pt4HZ7T-36" value="" style="endArrow=none;html=1;rounded=0;exitX=0.5;exitY=1;exitDx=0;exitDy=0;entryX=0.5;entryY=0;entryDx=0;entryDy=0;" edge="1" parent="1" source="vlqeVVWM1p6C3pt4HZ7T-35" target="vlqeVVWM1p6C3pt4HZ7T-2">
          <mxGeometry width="50" height="50" relative="1" as="geometry">
            <mxPoint x="315" y="260" as="sourcePoint" />
            <mxPoint x="365" y="210" as="targetPoint" />
          </mxGeometry>
        </mxCell>
        <mxCell id="vlqeVVWM1p6C3pt4HZ7T-37" value="1" style="edgeLabel;html=1;align=center;verticalAlign=middle;resizable=0;points=[];" vertex="1" connectable="0" parent="vlqeVVWM1p6C3pt4HZ7T-36">
          <mxGeometry x="-0.0762" y="-1" relative="1" as="geometry">
            <mxPoint as="offset" />
          </mxGeometry>
        </mxCell>
        <mxCell id="vlqeVVWM1p6C3pt4HZ7T-39" value="" style="endArrow=none;html=1;rounded=0;exitX=0;exitY=0.5;exitDx=0;exitDy=0;entryX=1;entryY=0.5;entryDx=0;entryDy=0;" edge="1" parent="1" source="yEoN-I2goSY5zeMMuiuP-5" target="vlqeVVWM1p6C3pt4HZ7T-35">
          <mxGeometry width="50" height="50" relative="1" as="geometry">
            <mxPoint x="315" y="260" as="sourcePoint" />
            <mxPoint x="345" y="241" as="targetPoint" />
          </mxGeometry>
        </mxCell>
        <mxCell id="vlqeVVWM1p6C3pt4HZ7T-41" value="M" style="edgeLabel;html=1;align=center;verticalAlign=middle;resizable=0;points=[];" vertex="1" connectable="0" parent="vlqeVVWM1p6C3pt4HZ7T-39">
          <mxGeometry x="-0.0612" y="-2" relative="1" as="geometry">
            <mxPoint as="offset" />
          </mxGeometry>
        </mxCell>
        <mxCell id="vlqeVVWM1p6C3pt4HZ7T-42" value="" style="endArrow=none;html=1;rounded=0;exitX=1;exitY=0.5;exitDx=0;exitDy=0;entryX=0;entryY=0.5;entryDx=0;entryDy=0;" edge="1" parent="1" source="vlqeVVWM1p6C3pt4HZ7T-3" target="vlqeVVWM1p6C3pt4HZ7T-15">
          <mxGeometry width="50" height="50" relative="1" as="geometry">
            <mxPoint x="315" y="260" as="sourcePoint" />
            <mxPoint x="365" y="210" as="targetPoint" />
          </mxGeometry>
        </mxCell>
        <mxCell id="vlqeVVWM1p6C3pt4HZ7T-45" value="M" style="edgeLabel;html=1;align=center;verticalAlign=middle;resizable=0;points=[];" vertex="1" connectable="0" parent="vlqeVVWM1p6C3pt4HZ7T-42">
          <mxGeometry x="0.0367" y="1" relative="1" as="geometry">
            <mxPoint as="offset" />
          </mxGeometry>
        </mxCell>
      </root>
    </mxGraphModel>
  </diagram>
</mxfile>
